PathFileType	4	(X/Y/Z)	G:\GRF\jawan data\CompiledGRF\03. Mohit Kumar\0231~ac~Walking 04_markers.trc
DataRate	CameraRate	NumFrames	NumMarkers	Units	OrigDataRate	OrigDataStartFrame	OrigNumFrames
100.000000	100.000000	10	18	mm	100.000000	807	1076
Frame#	Time	c7			r should			l should			sacrum			r asis			r bar 1			r knee 1			r bar 2			r mall			r heel			r met			l asis			l bar 1			l knee 1			l bar 2			l mall			l heel			l met			
		X1	Y1	Z1	X2	Y2	Z2	X3	Y3	Z3	X4	Y4	Z4	X5	Y5	Z5	X6	Y6	Z6	X7	Y7	Z7	X8	Y8	Z8	X9	Y9	Z9	X10	Y10	Z10	X11	Y11	Z11	X12	Y12	Z12	X13	Y13	Z13	X14	Y14	Z14	X15	Y15	Z15	X16	Y16	Z16	X17	Y17	Z17	X18	Y18	Z18	

808	8.07	2110.00146484375	1504.223022460938	241.69091796875	2203.19091796875	1445.177734375	407.8768005371094	2161.750244140625	1452.404418945313	64.68753051757813	2039.18310546875	1038.556396484375	231.4801330566406	2220.73193359375	1005.281555175781	352.2879333496094	2113.644287109375	596.101806640625	409.2928161621094	2117.582763671875	509.6152954101563	354.9328002929688	2027.560424804688	192.5534973144531	365.6691589355469	2022.837646484375	67.50836944580078	299.8132019042969	1963.85693359375	35.67623519897461	251.8207397460938	2168.39306640625	29.60239601135254	301.776123046875	2209.12890625	1017.601257324219	104.6106338500977	2297.870361328125	622.5005493164063	8.222373962402344	2349.62890625	542.3702392578125	55.83492660522461	2258.052734375	276.4798278808594	6.281493186950684	2232.340576171875	101.0671234130859	69.67179107666016	nan	nan	nan	2366.29052734375	53.68104553222656	83.93984985351563	
809	8.08	2119.58349609375	1503.162231445313	241.3017272949219	2212.597900390625	1443.989990234375	407.4070739746094	2170.861328125	1451.136596679688	64.35111999511719	2048.3857421875	1037.595092773438	231.2837677001953	2229.613037109375	1004.189270019531	351.9189453125	2118.875732421875	595.9588012695313	409.5208740234375	2121.473876953125	509.3503723144531	354.8126831054688	2028.573486328125	192.9268951416016	365.7660522460938	2023.013793945313	67.77156829833984	299.8644104003906	1965.14306640625	35.81598281860352	251.8470306396484	2168.51416015625	29.6063232421875	301.8875732421875	2217.66015625	1016.768188476563	104.3218154907227	2304.435302734375	620.357421875	9.067399024963379	2358.81298828125	541.9923095703125	56.77408981323242	2279.880859375	272.8673706054688	5.652091503143311	2263.746826171875	96.09729766845703	68.02692413330078	nan	nan	nan	2399.921142578125	54.76786041259766	83.13591003417969	
810	8.09	2128.189208984375	1502.003051757813	240.9055328369141	2222.124755859375	1442.725219726563	406.8226318359375	2179.99609375	1449.884765625	63.77511596679688	2057.70849609375	1036.359375	231.0013427734375	2238.54443359375	1003.053771972656	351.4888610839844	2124.259033203125	595.808349609375	409.3259582519531	2125.57275390625	509.1717834472656	354.6922302246094	2029.729125976563	193.5509796142578	365.8534851074219	2023.468994140625	68.31604766845703	300.0173034667969	1965.975708007813	36.1761589050293	251.9244232177734	2168.67529296875	29.65214729309082	301.9893188476563	2226.18408203125	1015.835266113281	103.9503936767578	2311.28515625	618.1350708007813	9.883951187133789	2367.623291015625	541.2537841796875	57.74866485595703	2302.155517578125	269.3729858398438	5.14439868927002	2294.984619140625	92.16743469238281	66.84319305419922	nan	nan	nan	2430.536865234375	54.02090454101563	82.08498382568359	
811	8.1	2136.346923828125	1500.890502929688	240.4398345947266	2231.8232421875	1441.461791992188	406.1741027832031	2189.114990234375	1448.6865234375	63.16272354125977	2066.297607421875	1035.13427734375	230.7527618408203	2247.52734375	1001.859924316406	350.9942016601563	2129.647216796875	595.580078125	408.8591613769531	2129.752197265625	509.0165100097656	354.5765991210938	2030.745483398438	194.1689453125	365.8674926757813	2023.644409179688	68.72185516357422	300.1156311035156	1967.017700195313	36.40077590942383	252.0100402832031	2168.7890625	29.67217254638672	302.1105651855469	2234.711181640625	1014.795776367188	103.4254913330078	2318.568115234375	615.7844848632813	10.57187652587891	2376.27099609375	540.2953491210938	58.79811096191406	2324.0654296875	266.0429077148438	4.915688037872314	2325.15185546875	88.41970825195313	66.28218078613281	nan	nan	nan	2456.857177734375	50.35633850097656	80.42965698242188	
812	8.109999999999999	2146.44091796875	1499.62451171875	239.9615936279297	2241.47509765625	1440.121215820313	405.4797058105469	2198.1435546875	1447.520263671875	62.52545928955078	2075.3359375	1033.62939453125	230.6854553222656	2256.505126953125	1000.608947753906	350.4966735839844	2134.814208984375	595.24169921875	408.5398559570313	2134.066162109375	508.8572387695313	354.5004577636719	2031.760498046875	194.7897338867188	365.9086303710938	2023.646850585938	69.04201507568359	300.0660400390625	1967.930419921875	36.71547698974609	252.1374816894531	2168.980224609375	29.74744987487793	302.2341613769531	2243.308349609375	1013.623107910156	102.7660675048828	2326.458984375	613.517578125	11.03116893768311	2384.873046875	539.1026611328125	59.85191345214844	2346.124267578125	263.0819091796875	4.969236373901367	2354.979736328125	85.42272186279297	66.13033294677734	nan	nan	nan	2487.33154296875	52.62491607666016	80.75562286376953	
813	8.120000000000001	2156.880126953125	1498.207641601563	239.4645538330078	2251.1015625	1438.69873046875	404.598876953125	2207.07080078125	1446.347900390625	61.78413391113281	2084.477783203125	1031.8759765625	230.4170532226563	2265.6533203125	999.3600463867188	349.9639282226563	2139.837646484375	594.8673706054688	408.3576049804688	2138.615966796875	508.7478637695313	354.4298706054688	2032.912231445313	195.4352111816406	365.9390869140625	2023.88623046875	69.59263610839844	300.1546630859375	1967.640380859375	37.49603271484375	252.1043395996094	2169.10888671875	29.80976295471191	302.3539123535156	2251.87744140625	1012.312194824219	101.9700241088867	2334.93701171875	611.3062744140625	11.17713642120361	2393.3330078125	537.605224609375	60.81868362426758	2367.67041015625	260.4482116699219	5.245586395263672	2382.980712890625	83.15433502197266	66.41592407226563	nan	nan	nan	2521.660888671875	60.7136116027832	82.77817535400391	
814	8.130000000000001	2166.545654296875	1496.748413085938	238.8461761474609	2260.592529296875	1437.231811523438	403.6982116699219	2216.34423828125	1445.034301757813	61.04619979858398	2093.397216796875	1030.235717773438	229.8399810791016	2274.875732421875	998.0845336914063	349.3752136230469	2145.302978515625	594.7779541015625	408.3016967773438	2143.580078125	508.7066955566406	354.3333435058594	2034.34375	196.1846313476563	366.0192260742188	2023.953735351563	70.06503295898438	300.2277221679688	1966.829956054688	38.43031692504883	252.0655670166016	2169.315185546875	29.87632179260254	302.4865417480469	2260.518798828125	1010.840270996094	101.0613784790039	2343.96240234375	609.222412109375	11.19338130950928	2401.70556640625	535.8916625976563	61.7461051940918	2388.2822265625	258.3672790527344	5.714396953582764	2409.51904296875	81.80234527587891	67.27135467529297	nan	nan	nan	2551.50439453125	66.64834594726563	84.01506805419922	
815	8.140000000000001	2174.991943359375	1495.592041015625	237.9347381591797	2270.209716796875	1435.849487304688	402.6666259765625	2225.271484375	1443.670288085938	60.28928756713867	2102.949462890625	1028.55810546875	229.2411041259766	2284.1005859375	996.6947021484375	348.7129821777344	2150.94091796875	594.6080932617188	407.8989868164063	2147.89990234375	508.0226745605469	353.9002075195313	2036.0224609375	197.0305328369141	366.1797790527344	2024.036865234375	70.599609375	300.3880920410156	1966.894165039063	39.33822250366211	252.2779388427734	2169.594482421875	29.66851043701172	302.47265625	2270.0263671875	1009.477355957031	100.3567352294922	2353.139404296875	607.0770263671875	11.18802833557129	2410.0244140625	534.101318359375	62.65978622436523	2407.22998046875	256.6450805664063	6.326053142547607	2435.173095703125	81.17990875244141	68.41319274902344	nan	nan	nan	2578.097412109375	70.34641265869141	85.26116943359375	
816	8.15	2183.33935546875	1494.423095703125	236.925537109375	2279.945068359375	1434.548217773438	401.67626953125	2234.0283203125	1442.238159179688	59.39042663574219	2112.4248046875	1026.992309570313	228.4728546142578	2293.506591796875	995.361083984375	347.972900390625	2157.1162109375	594.5208740234375	407.3805236816406	2151.518310546875	506.6465759277344	353.0733032226563	2038.02685546875	197.9363555908203	366.3642883300781	2025.122924804688	71.82596588134766	300.9062805175781	1967.66162109375	40.29078674316406	252.6164093017578	2169.78076171875	29.39534759521484	302.4053649902344	2280.701171875	1008.411071777344	100.0104827880859	2362.241455078125	604.9404296875	11.2311544418335	2418.240478515625	532.3565673828125	63.57962036132813	2424.61376953125	255.3897552490234	7.293033599853516	2459.24072265625	81.05890655517578	69.66108703613281	nan	nan	nan	2603.60986328125	75.91680908203125	86.69322967529297	
817	8.16	2191.359375	1493.20068359375	235.8725738525391	2289.614501953125	1433.258911132813	400.6863708496094	2242.978759765625	1440.790893554688	58.33782196044922	2121.7861328125	1025.63916015625	227.3105163574219	2303.03857421875	994.109130859375	347.1419982910156	2163.30712890625	594.1568603515625	406.8761596679688	2156.93798828125	505.9880676269531	352.6382446289063	2040.193603515625	198.8119354248047	366.4535217285156	2026.869995117188	73.45928955078125	301.6671752929688	1968.452392578125	41.44889068603516	253.0026092529297	2169.617919921875	29.4746208190918	302.5528869628906	2290.70849609375	1007.118103027344	99.31008911132813	2371.1357421875	602.9039916992188	11.32732582092285	2426.3896484375	530.739501953125	64.46417999267578	2440.431884765625	254.5926208496094	8.566200256347656	2481.65234375	81.35191345214844	71.13886260986328	nan	nan	nan	2626.6455078125	80.05267333984375	88.54500579833984	
